<?xml version="1.0" encoding="utf-8"?>
<!DOCTYPE svg PUBLIC "-//W3C//DTD SVG 1.1//EN" "http://www.w3.org/Graphics/SVG/1.1/DTD/svg11.dtd">
<svg version="1.1" id="Layer_1" xmlns="http://www.w3.org/2000/svg" xmlns:xlink="http://www.w3.org/1999/xlink" x="0px" y="0px"
	 width="200px" height="200px" viewBox="0 0 200 200" enable-background="new 0 0 200 200" xml:space="preserve">
<linearGradient id="SVGID_1_" gradientUnits="userSpaceOnUse" x1="241.126" y1="-129.8745" x2="371.1259" y2="-259.8745" gradientTransform="matrix(1 0 0 -1 -206 -95)">
	<stop  offset="0" style="stop-color:#224477"/>
	<stop  offset="1" style="stop-color:#000000"/>
</linearGradient>
<path fill="url(#SVGID_1_)" stroke="#000000" stroke-miterlimit="10" d="M191,70V60l-52-0v-49H130l0,49l-60-0L70,10
	h-9l-0,50H9V70l50-0v61h-50v10h50v50h10v-50h60v50h10v-50h50v-10h-50v-61L191,70z M129,129L70,130V70h59
	V129z"/>
<radialGradient id="SVGID_2_" cx="613" cy="792.0313" r="40.0161" gradientTransform="matrix(1 0 0 1 -462 -741)" gradientUnits="userSpaceOnUse">
	<stop  offset="0" style="stop-color:#224477"/>
	<stop  offset="1" style="stop-color:#000000"/>
</radialGradient>
<polygon fill="url(#SVGID_2_)" stroke="#000000" stroke-miterlimit="10" points="120,90 110,80 140,50 110,20
	120,10 150,40 180,10 190,20 160,50 190,80 180,90 150,60"/>
<linearGradient id="SVGID_3_" gradientUnits="userSpaceOnUse" x1="228.2168" y1="-273.7837" x2="284.7847" y2="-217.2158" gradientTransform="matrix(1 0 0 -1 -206 -95)">
	<stop  offset="0" style="stop-color:#224477"/>
	<stop  offset="1" style="stop-color:#000000"/>
</linearGradient>
<path fill="url(#SVGID_3_)" stroke="#000000" stroke-miterlimit="10" d="M50,110c-22,0-40,17-40,40c0,22,17,40,40,40
	c22,0,40-17,40-40S72,110,50,110z M50,180c-16,0-30-13-30-30s13-30,30-30c16,0,30,13,30,30S66,180,50,180z"/>
</svg>
