<svg
  version="1.1"
  xmlns="http://www.w3.org/2000/svg"
  viewBox="0 0 100 100"
>
  <linearGradient
    id="lg1"
    gradientUnits="userSpaceOnUse"
    gradientTransform="rotate(90)"
  >
    <stop
      offset="0"
      style="stop-color:#FFFFFF"
    />
    <stop
      offset="1"
      style="stop-color:#DDDDDD"
    />
  </linearGradient>
  <path
    fill="url(#lg1)"
    d="M100,88c0,6.628-5.372,12-12,12H12c-6.627,0-12-5.372-12-12V12C0,5.373,5.373,0,12,0h76
	c6.628,0,12,5.373,12,12V88z"
  />
  <linearGradient
    id="lg2"
    gradientUnits="userSpaceOnUse"
    gradientTransform="rotate(0)"
  >
    <stop
      offset="0"
      style="stop-color:#002470"
    />
    <stop
      offset="1"
      style="stop-color:#000000"
    />
  </linearGradient>
  <polygon
    fill="url(#lg2)"
    stroke="#000000"
    stroke-width="5"
    stroke-miterlimit="10"
    points="64.143,50 96.465,17.678
	82.323,3.535 50,35.857 17.678,3.535 3.535,17.676 35.857,50 3.535,82.323 17.678,96.465 50.001,64.143 82.323,96.465
	96.465,82.322 "
  />
  <linearGradient
    id="lg3"
    gradientUnits="userSpaceOnUse"
    gradientTransform="rotate(0)"
  >
    <stop
      offset="0"
      style="stop-color:#000000"
    />
    <stop
      offset="1"
      style="stop-color:#702400"
    />
  </linearGradient>
  <path
    fill="url(#lg3)"
    stroke="#000000"
    stroke-width="5"
    stroke-miterlimit="10"
    d="M50,2.5C23.768,2.5,2.5,23.767,2.5,50
	c0,26.232,21.268,47.5,47.5,47.5c26.233,0,47.5-21.268,47.5-47.5C97.5,23.767,76.233,2.5,50,2.5z M50,80c-16.568,0-30-13.432-30-30
	c0-16.568,13.432-30,30-30s30,13.432,30,30C80,66.568,66.568,80,50,80z"
  />
</svg>